<svg width="18" height="18" viewBox="0 0 18 18" fill="none" xmlns="http://www.w3.org/2000/svg">
<path d="M13.1667 0.666504H4.83341C2.53223 0.666504 0.666748 2.53198 0.666748 4.83317V13.1665C0.666748 15.4677 2.53223 17.3332 4.83341 17.3332H13.1667C15.4679 17.3332 17.3334 15.4677 17.3334 13.1665V4.83317C17.3334 2.53198 15.4679 0.666504 13.1667 0.666504Z" stroke="white" stroke-linecap="round" stroke-linejoin="round"/>
<path d="M12.3322 8.47525C12.4351 9.16879 12.3166 9.8771 11.9937 10.4994C11.6708 11.1218 11.1598 11.6264 10.5336 11.9416C9.9073 12.2569 9.19759 12.3666 8.50537 12.2552C7.81315 12.1438 7.17368 11.817 6.67791 11.3212C6.18215 10.8255 5.85532 10.186 5.74394 9.49376C5.63255 8.80154 5.74227 8.09183 6.05749 7.46556C6.3727 6.8393 6.87737 6.32837 7.4997 6.00545C8.12203 5.68254 8.83034 5.56407 9.52388 5.66692C10.2313 5.77182 10.8863 6.10147 11.392 6.60717C11.8977 7.11288 12.2273 7.76782 12.3322 8.47525Z" stroke="white" stroke-linecap="round" stroke-linejoin="round"/>
<path d="M13.5826 4.41687H13.5914" stroke="white" stroke-linecap="round" stroke-linejoin="round"/>
</svg>
