<svg width="18" height="17" viewBox="0 0 18 17" fill="none" xmlns="http://www.w3.org/2000/svg">
<path d="M12.3341 5.66687C13.6602 5.66687 14.932 6.19365 15.8697 7.13134C16.8074 8.06902 17.3341 9.34079 17.3341 10.6669V16.5002H14.0008V10.6669C14.0008 10.2248 13.8252 9.80092 13.5126 9.48836C13.2001 9.1758 12.7762 9.0002 12.3341 9.0002C11.8921 9.0002 11.4682 9.1758 11.1556 9.48836C10.8431 9.80092 10.6675 10.2248 10.6675 10.6669V16.5002H7.33414V10.6669C7.33414 9.34079 7.86092 8.06902 8.7986 7.13134C9.73629 6.19365 11.0081 5.66687 12.3341 5.66687Z" stroke="white" stroke-linecap="round" stroke-linejoin="round"/>
<path d="M4.00106 6.49976H0.667725V16.4998H4.00106V6.49976Z" stroke="white" stroke-linecap="round" stroke-linejoin="round"/>
<path d="M2.33436 3.99984C3.25484 3.99984 4.00103 3.25365 4.00103 2.33317C4.00103 1.4127 3.25484 0.666504 2.33436 0.666504C1.41389 0.666504 0.667694 1.4127 0.667694 2.33317C0.667694 3.25365 1.41389 3.99984 2.33436 3.99984Z" stroke="white" stroke-linecap="round" stroke-linejoin="round"/>
</svg>
