<svg width="20" height="17" viewBox="0 0 20 17" fill="none" xmlns="http://www.w3.org/2000/svg">
<path d="M19.3333 1.34163C18.5353 1.90453 17.6517 2.33506 16.7166 2.61663C16.2147 2.03956 15.5477 1.63054 14.8058 1.4449C14.0639 1.25927 13.2829 1.30596 12.5683 1.57868C11.8538 1.85139 11.2403 2.33697 10.8108 2.96973C10.3812 3.60249 10.1564 4.35191 10.1666 5.11663V5.94997C8.70213 5.98794 7.251 5.66314 5.94245 5.0045C4.63389 4.34586 3.50854 3.37383 2.66661 2.17497C2.66661 2.17497 -0.666728 9.67497 6.83327 13.0083C5.11705 14.1733 3.07257 14.7574 0.999939 14.675C8.49994 18.8416 17.6666 14.675 17.6666 5.09163C17.6658 4.85951 17.6435 4.62796 17.5999 4.39997C18.4504 3.56121 19.0506 2.50223 19.3333 1.34163V1.34163Z" stroke="white" stroke-linecap="round" stroke-linejoin="round"/>
</svg>
