<svg width="54" height="47" viewBox="0 0 54 47" fill="none" xmlns="http://www.w3.org/2000/svg">
<path d="M15.9858 46.1962C17.0164 46.1962 17.8519 45.3608 17.8519 44.3302C17.8519 43.2996 17.0164 42.4641 15.9858 42.4641C14.9552 42.4641 14.1197 43.2996 14.1197 44.3302C14.1197 45.3608 14.9552 46.1962 15.9858 46.1962Z" stroke="white" stroke-linecap="round" stroke-linejoin="round"/>
<path d="M36.5127 46.1962C37.5433 46.1962 38.3788 45.3608 38.3788 44.3302C38.3788 43.2996 37.5433 42.4641 36.5127 42.4641C35.4821 42.4641 34.6466 43.2996 34.6466 44.3302C34.6466 45.3608 35.4821 46.1962 36.5127 46.1962Z" stroke="white" stroke-linecap="round" stroke-linejoin="round"/>
<path d="M1.05713 7.00854H8.52139L13.5225 31.9952C13.6931 32.8543 14.1605 33.626 14.8428 34.1753C15.5251 34.7245 16.3788 35.0163 17.2546 34.9995H35.3927C36.2685 35.0163 37.1222 34.7245 37.8046 34.1753C38.4869 33.626 38.9542 32.8543 39.1249 31.9952L42.1106 16.3389H10.3875" stroke="white" stroke-linecap="round" stroke-linejoin="round"/>
<ellipse cx="44.205" cy="10.3713" rx="9.79509" ry="10.3713" fill="#FF4B32"/>
<path d="M46.4705 13.3047H40.8806V12.5254L43.8338 9.24414C44.2713 8.74805 44.5721 8.3457 44.7361 8.03711C44.9041 7.72461 44.9881 7.40234 44.9881 7.07031C44.9881 6.625 44.8533 6.25977 44.5838 5.97461C44.3142 5.68945 43.9549 5.54688 43.5056 5.54688C42.9666 5.54688 42.5467 5.70117 42.2459 6.00977C41.949 6.31445 41.8006 6.74023 41.8006 7.28711H40.7166C40.7166 6.50195 40.9685 5.86719 41.4724 5.38281C41.9803 4.89844 42.658 4.65625 43.5056 4.65625C44.2986 4.65625 44.9256 4.86523 45.3865 5.2832C45.8474 5.69727 46.0779 6.25 46.0779 6.94141C46.0779 7.78125 45.5428 8.78125 44.4724 9.94141L42.1873 12.4199H46.4705V13.3047Z" fill="white"/>
</svg>
