<svg width="50" height="50" viewBox="0 0 50 50" fill="none" xmlns="http://www.w3.org/2000/svg">
<g clip-path="url(#clip0_101_1539)">
<path d="M46.8497 41.8508H39.7774C39.3728 41.8508 39.045 42.1787 39.045 42.5832C39.045 42.9877 39.3728 43.3156 39.7774 43.3156H46.1173V43.7288L35.4526 45.7541H14.0748L3.41016 43.7288V43.3156H6.32227C6.32345 43.3156 6.32462 43.3158 6.32569 43.3158C6.32657 43.3158 6.32755 43.3156 6.32843 43.3156H8.9673C8.96818 43.3156 8.96896 43.3158 8.96984 43.3158C8.97121 43.3158 8.97267 43.3156 8.97404 43.3156H17.755C17.7555 43.3156 17.756 43.3157 17.7566 43.3157C17.7571 43.3157 17.7575 43.3156 17.7579 43.3156H20.3746C20.3754 43.3156 20.3762 43.3158 20.377 43.3158C20.3778 43.3158 20.3787 43.3156 20.3794 43.3156H29.148C29.1489 43.3156 29.1497 43.3158 29.1504 43.3158C29.1512 43.3158 29.152 43.3156 29.1527 43.3156H37.0576C37.4622 43.3156 37.79 42.9877 37.79 42.5832C37.79 42.1787 37.4622 41.8508 37.0576 41.8508H32.3334C33.2081 41.2949 34.0244 40.6439 34.7583 39.9105C35.8175 38.8508 36.6872 37.6521 37.3518 36.3562C38.278 36.7335 39.2587 36.925 40.2754 36.925C44.5649 36.925 48.0547 33.4347 48.0547 29.1447C48.0547 24.8551 44.5649 21.3654 40.2754 21.3654C39.8105 21.3654 39.35 21.4075 38.8974 21.4886V21.0696C38.8974 20.1321 38.1347 19.3694 37.1973 19.3694H33.7334C33.3288 19.3694 33.0009 19.6973 33.0009 20.1018C33.0009 20.5063 33.3288 20.8342 33.7334 20.8342H37.1973C37.327 20.8342 37.4326 20.9398 37.4326 21.0696V22.3147H12.0937V21.0696C12.0937 20.9398 12.1992 20.8342 12.329 20.8342H31.0127C31.4172 20.8342 31.7451 20.5063 31.7451 20.1018C31.7451 19.6973 31.4172 19.3694 31.0127 19.3694H12.329C11.3915 19.3694 10.6288 20.1321 10.6288 21.0696V29.9153C10.6288 31.02 10.758 32.1152 11.0098 33.179C9.81769 32.8235 8.39718 33.1028 7.10108 33.9896C6.7672 34.218 6.68165 34.6738 6.91007 35.0077C7.13859 35.3415 7.59444 35.4269 7.92823 35.1986C8.77765 34.6175 9.66906 34.3893 10.4062 34.537L7.73839 38.5284C7.51359 38.8647 7.60402 39.3196 7.94025 39.5443C8.06525 39.6279 8.20675 39.6679 8.3466 39.6679C8.58302 39.6679 8.81505 39.5537 8.95617 39.3425L11.6247 35.3497C11.9015 35.7605 12.0531 36.2981 12.0603 36.9247C12.0603 36.925 12.0603 36.9252 12.0603 36.9255C12.0603 36.9268 12.0604 36.9282 12.0604 36.9296C12.0702 37.8971 11.7321 38.9437 11.1086 39.8765C10.7531 40.4085 10.3328 40.8646 9.85685 41.2342C9.52687 41.4926 9.18019 41.6993 8.82501 41.8508H6.51124C6.48478 41.8349 6.45841 41.819 6.43214 41.8012C5.2127 40.9868 5.13555 38.8804 6.25645 37.0059C6.46407 36.6588 6.35099 36.209 6.00382 36.0013C5.65684 35.7939 5.20694 35.9068 4.99932 36.2541C4.28477 37.4489 3.93575 38.7802 4.01661 40.0027C4.0625 40.6964 4.24405 41.3215 4.54288 41.8507H2.67774C2.27315 41.8507 1.94531 42.1786 1.94531 42.5831V44.335C1.94531 44.6869 2.19551 44.9889 2.54111 45.0546L13.3116 47.1V49.2676C13.3116 49.6721 13.6395 50 14.0441 50H35.4824C35.887 50 36.2148 49.6721 36.2148 49.2676V47.1002L46.9863 45.0546C47.3319 44.9889 47.5821 44.6868 47.5821 44.335V42.5831C47.5821 42.1787 47.2542 41.8508 46.8497 41.8508ZM38.8973 29.9151V26.4499H38.8974C39.3218 26.232 39.7912 26.1164 40.2754 26.1164C41.9452 26.1164 43.3037 27.4749 43.3037 29.1447C43.3037 30.8145 41.9452 32.173 40.2754 32.173C39.7432 32.173 39.231 32.0348 38.7761 31.7743C38.8559 31.1628 38.8973 30.5422 38.8973 29.9151ZM38.4979 33.272C39.0548 33.5125 39.6563 33.638 40.2754 33.638C42.7529 33.638 44.7685 31.6223 44.7685 29.1448C44.7685 26.6672 42.7529 24.6516 40.2754 24.6516C39.8027 24.6516 39.339 24.7255 38.8974 24.8678V23.0546C38.8974 23.0521 38.8978 23.0497 38.8978 23.0471C38.8978 23.0446 38.8974 23.0421 38.8974 23.0396V22.9821C39.347 22.8817 39.8086 22.8302 40.2755 22.8302C43.7572 22.8302 46.5899 25.6629 46.5899 29.1447C46.5899 32.627 43.7572 35.4601 40.2755 35.4601C39.4679 35.4601 38.6895 35.3096 37.9529 35.017C38.1723 34.4491 38.3539 33.8663 38.4979 33.272ZM12.0937 23.7795H37.4326V26.034C37.4326 26.0348 37.4326 26.0357 37.4326 26.0365V29.9152C37.4326 33.2994 36.1149 36.4813 33.7225 38.8747C32.397 40.1993 30.7736 41.2259 29.022 41.8508H20.5063C20.2701 41.7667 20.035 41.6762 19.8029 41.5773C20.3403 40.7324 20.5451 39.7924 20.3682 38.8965C20.368 38.8953 20.3679 38.8942 20.3677 38.893C20.3674 38.8917 20.3669 38.8903 20.3667 38.8889C20.1332 37.7234 19.3097 36.7644 18.0472 36.1884C16.8646 35.6489 15.4192 35.5092 13.9771 35.7956C13.8459 35.8216 13.7159 35.8514 13.587 35.8842C12.6094 34.0566 12.0937 32.0054 12.0937 29.9153V23.7795ZM12.3267 40.6904C13.0047 39.676 13.4139 38.5384 13.5053 37.436C13.751 37.3532 14.0037 37.2838 14.2626 37.2322C16.1262 36.8623 17.9231 37.423 18.6396 38.4898L13.9325 39.4255C13.5358 39.5044 13.2781 39.8898 13.3569 40.2866C13.4262 40.6351 13.7322 40.8763 14.0745 40.8763C14.1218 40.8763 14.1699 40.8718 14.2181 40.8621L18.9281 39.9258C18.8341 40.4076 18.5656 40.8906 18.1354 41.3344C18.1342 41.3355 18.1331 41.3368 18.1321 41.338C17.9527 41.522 17.7498 41.6934 17.5289 41.8506H11.3706C11.7217 41.5044 12.0419 41.1166 12.3267 40.6904ZM34.75 48.5353H14.7764V47.2189H34.75V48.5353Z" fill="#FF4B32"/>
<path d="M26.6696 14.6436C26.6563 14.652 26.6455 14.6587 26.6377 14.6637C26.645 14.659 26.6558 14.6522 26.6696 14.6436Z" fill="#FF4B32"/>
<path d="M26.6382 14.6636C26.6181 14.6762 26.6206 14.6746 26.6382 14.6636V14.6636Z" fill="#FF4B32"/>
<path d="M28.2554 7.99494C29.2418 7.05744 29.8098 5.75832 29.8098 4.36378C29.8098 2.62794 28.9311 1.03877 27.4592 0.1126C27.1169 -0.10283 26.6645 0.000100211 26.4493 0.342484C26.2338 0.684867 26.3368 1.13702 26.6792 1.35245C27.7223 2.0088 28.3451 3.13448 28.3451 4.36368C28.3451 5.59288 27.7223 6.71857 26.6792 7.37492C26.2314 7.65578 26.2314 8.33293 26.6792 8.61477C27.7223 9.27111 28.3451 10.3968 28.3451 11.626C28.3452 12.8553 27.7224 13.9811 26.6793 14.6374C26.6754 14.6398 26.673 14.6413 26.6697 14.6435C26.6728 14.6415 26.6758 14.6397 26.6793 14.6375C26.3369 14.853 26.2339 15.3051 26.4494 15.6475C26.5885 15.8688 26.8265 15.99 27.0699 15.99C27.2032 15.99 27.3381 15.9536 27.4592 15.8774C28.9311 14.9513 29.8098 13.362 29.8098 11.6263C29.8098 10.2316 29.2417 8.93244 28.2554 7.99494ZM27.0613 14.397C27.0786 14.3862 27.0807 14.3848 27.0613 14.397V14.397ZM26.9659 14.4572C26.9819 14.447 26.9967 14.4377 27.0101 14.4293C26.9973 14.4373 26.983 14.4464 26.9659 14.4572Z" fill="#FF4B32"/>
<path d="M32.6138 7.37508C32.2715 7.15965 31.8191 7.26248 31.6038 7.60496C31.3884 7.94724 31.4913 8.39949 31.8337 8.61492C32.8768 9.27127 33.4995 10.3971 33.4995 11.6263C33.4996 12.8553 32.8769 13.981 31.8338 14.6374C31.4914 14.8528 31.3885 15.305 31.6039 15.6474C31.7431 15.8686 31.9811 15.9898 32.2244 15.9898C32.3577 15.9898 32.4927 15.9534 32.6138 15.8772C34.0856 14.9512 34.9643 13.3619 34.9643 11.6262C34.9643 9.89041 34.0856 8.30115 32.6138 7.37508Z" fill="#FF4B32"/>
<path d="M21.8827 7.37505C21.5404 7.15962 21.088 7.26255 20.8727 7.60494C20.6573 7.94732 20.7602 8.39947 21.1026 8.6149C22.1458 9.27125 22.7685 10.3969 22.7685 11.6261C22.7686 12.8553 22.1459 13.9811 21.1027 14.6375C20.7603 14.8529 20.6574 15.305 20.8728 15.6474C21.012 15.8687 21.25 15.9899 21.4933 15.9899C21.6266 15.9899 21.7616 15.9535 21.8827 15.8773C23.3546 14.9512 24.2333 13.362 24.2333 11.6262C24.2333 9.89039 23.3546 8.30123 21.8827 7.37505Z" fill="#FF4B32"/>
</g>
<defs>
<clipPath id="clip0_101_1539">
<rect width="50" height="50" fill="white"/>
</clipPath>
</defs>
</svg>
