<svg width="24" height="24" viewBox="0 0 24 24" fill="none" xmlns="http://www.w3.org/2000/svg">
<path d="M24 9.1327C24 5.33085 20.907 2.23785 17.1052 2.23785H6.89484C3.093 2.2379 0 5.3309 0 9.13275C0 10.2554 0.913359 11.1688 2.03602 11.1688H3.97945L2.57236 14.3552C2.07511 15.4814 1.82297 16.6765 1.82297 17.9076V19.2132C1.82297 20.6189 2.96653 21.7624 4.37217 21.7624H19.6275C21.0331 21.7624 22.1767 20.6189 22.1767 19.2132V17.9076C22.1767 16.6765 21.9246 15.4814 21.4273 14.3552L20.0202 11.1688H21.9639C23.0866 11.1687 24 10.2554 24 9.1327ZM6.89484 3.80985H17.1052V3.8099C19.3193 3.8099 21.2216 5.1689 22.0228 7.0964H17.4928C17.1057 6.69567 16.5634 6.44573 15.9635 6.44573H8.03653C7.43555 6.44573 6.89236 6.69665 6.50503 7.09865C6.48994 7.09781 6.47498 7.09635 6.4597 7.09635H1.97728C2.77837 5.16881 4.6808 3.80985 6.89484 3.80985ZM2.03602 9.59667C1.78017 9.59667 1.57205 9.38859 1.57205 9.1327C1.57205 8.97628 1.57922 8.8215 1.59253 8.66845H5.90883V9.27515C5.90883 9.45243 5.76455 9.59662 5.58731 9.59662H2.03602V9.59667ZM20.6047 17.9074V19.2131C20.6047 19.7519 20.1664 20.1902 19.6275 20.1902H4.37217C3.83339 20.1902 3.39502 19.7519 3.39502 19.2131V17.9074C3.39502 16.8965 3.60206 15.9149 4.01044 14.9902L5.69958 11.1651C6.69164 11.1068 7.48092 10.2816 7.48092 9.2752V8.57357C7.48092 8.26715 7.7302 8.01787 8.03658 8.01787H15.9634C16.2698 8.01787 16.5191 8.26715 16.5191 8.57357V9.2752C16.5191 10.2815 17.3081 11.1067 18.3 11.1651L19.9892 14.9902C20.3977 15.915 20.6047 16.8964 20.6047 17.9074ZM18.4127 9.59671V9.59667C18.2355 9.59667 18.0912 9.45248 18.0912 9.2752V8.6685H22.4075C22.4208 8.82154 22.428 8.97632 22.428 9.13279C22.428 9.38864 22.2199 9.59676 21.964 9.59676H18.4127V9.59671Z" fill="white"/>
<path d="M9.25518 12.8365C9.73546 12.8365 10.1248 12.4472 10.1248 11.9669C10.1248 11.4866 9.73546 11.0973 9.25518 11.0973C8.7749 11.0973 8.38556 11.4866 8.38556 11.9669C8.38556 12.4472 8.7749 12.8365 9.25518 12.8365Z" fill="white"/>
<path d="M12 12.8365C12.4803 12.8365 12.8696 12.4472 12.8696 11.9669C12.8696 11.4866 12.4803 11.0973 12 11.0973C11.5197 11.0973 11.1304 11.4866 11.1304 11.9669C11.1304 12.4472 11.5197 12.8365 12 12.8365Z" fill="white"/>
<path d="M14.7448 12.8365C15.2251 12.8365 15.6144 12.4472 15.6144 11.9669C15.6144 11.4866 15.2251 11.0973 14.7448 11.0973C14.2645 11.0973 13.8752 11.4866 13.8752 11.9669C13.8752 12.4472 14.2645 12.8365 14.7448 12.8365Z" fill="white"/>
<path d="M9.25518 15.4799C9.73546 15.4799 10.1248 15.0905 10.1248 14.6102C10.1248 14.1299 9.73546 13.7406 9.25518 13.7406C8.7749 13.7406 8.38556 14.1299 8.38556 14.6102C8.38556 15.0905 8.7749 15.4799 9.25518 15.4799Z" fill="white"/>
<path d="M12 15.4799C12.4803 15.4799 12.8696 15.0905 12.8696 14.6102C12.8696 14.1299 12.4803 13.7406 12 13.7406C11.5197 13.7406 11.1304 14.1299 11.1304 14.6102C11.1304 15.0905 11.5197 15.4799 12 15.4799Z" fill="white"/>
<path d="M14.7448 15.4799C15.2251 15.4799 15.6144 15.0905 15.6144 14.6102C15.6144 14.1299 15.2251 13.7406 14.7448 13.7406C14.2645 13.7406 13.8752 14.1299 13.8752 14.6102C13.8752 15.0905 14.2645 15.4799 14.7448 15.4799Z" fill="white"/>
<path d="M9.25518 18.1228C9.73546 18.1228 10.1248 17.7335 10.1248 17.2532C10.1248 16.7729 9.73546 16.3835 9.25518 16.3835C8.7749 16.3835 8.38556 16.7729 8.38556 17.2532C8.38556 17.7335 8.7749 18.1228 9.25518 18.1228Z" fill="white"/>
<path d="M12 18.1228C12.4803 18.1228 12.8696 17.7335 12.8696 17.2532C12.8696 16.7729 12.4803 16.3835 12 16.3835C11.5197 16.3835 11.1304 16.7729 11.1304 17.2532C11.1304 17.7335 11.5197 18.1228 12 18.1228Z" fill="white"/>
<path d="M14.7448 18.1228C15.2251 18.1228 15.6144 17.7335 15.6144 17.2532C15.6144 16.7729 15.2251 16.3835 14.7448 16.3835C14.2645 16.3835 13.8752 16.7729 13.8752 17.2532C13.8752 17.7335 14.2645 18.1228 14.7448 18.1228Z" fill="white"/>
</svg>
